<svg width="320" height="420" viewBox="0 0 320 420" fill="none" xmlns="http://www.w3.org/2000/svg">
  <defs>
    <linearGradient id="helmetRed" x1="0" y1="0" x2="1" y2="1">
      <stop offset="0%" stop-color="#f97316" />
      <stop offset="100%" stop-color="#fb923c" />
    </linearGradient>
    <linearGradient id="visor" x1="0" y1="0" x2="1" y2="1">
      <stop offset="0%" stop-color="#1e1f2b" />
      <stop offset="100%" stop-color="#3a3c4f" />
    </linearGradient>
  </defs>
  <rect x="24" y="40" width="272" height="352" rx="48" fill="rgba(12,13,24,0.85)" stroke="rgba(255,255,255,0.18)" stroke-width="2" />
  <g transform="translate(64 70)">
    <path d="M40 170c-6-14-9-30-9-46 0-67 54-121 121-121 28 0 54 9 74 25 4 12 6 25 6 38 0 55-38 101-90 112" fill="#0b0c17" opacity="0.85" />
    <path d="M36 88c14-52 56-84 116-84 46 0 84 24 97 63-14 8-38 15-72 19-63 8-105 0-141-18z" fill="url(#helmetRed)" />
    <rect x="58" y="86" width="156" height="48" rx="24" fill="url(#visor)" stroke="rgba(255,255,255,0.25)" stroke-width="2" />
    <path d="M40 168c24 20 56 32 104 32s80-12 104-32v54c0 9-7 16-16 16H56c-9 0-16-7-16-16v-54z" fill="#151622" />
    <path d="M48 228h184l-32 72c-6 14-20 24-36 24H116c-16 0-30-9-36-24l-32-72z" fill="#1b1c2d" />
    <circle cx="136" cy="112" r="84" stroke="rgba(255,255,255,0.28)" stroke-width="3" fill="none" />
    <path d="M120 260h32v44a16 16 0 0 1-32 0v-44z" fill="#0f101d" />
    <circle cx="136" cy="300" r="32" fill="rgba(14,15,25,0.85)" stroke="rgba(255,255,255,0.1)" stroke-width="2" />
  </g>
  <circle cx="92" cy="330" r="12" fill="#f97316" opacity="0.8" />
  <circle cx="228" cy="84" r="10" fill="#fb923c" opacity="0.8" />
  <path d="M38 112c18-32 64-64 122-64" stroke="rgba(255,255,255,0.12)" stroke-width="4" stroke-linecap="round" />
</svg>
